<?xml version="1.0" standalone="no"?>
<!DOCTYPE svg PUBLIC "-//W3C//DTD SVG 20010904//EN"
 "http://www.w3.org/TR/2001/REC-SVG-20010904/DTD/svg10.dtd">
<svg version="1.0" xmlns="http://www.w3.org/2000/svg"
 width="284.000000pt" height="300.000000pt" viewBox="0 0 284.000000 300.000000"
 preserveAspectRatio="xMidYMid meet">

<g transform="translate(0.000000,300.000000) scale(0.100000,-0.100000)"
fill="#000000" stroke="none">
<path d="M1004 686 c-8 -22 3 -33 18 -18 9 9 9 15 0 24 -9 9 -13 7 -18 -6z"/>
<path d="M1908 694 c-5 -4 -8 -74 -8 -155 0 -169 0 -169 84 -169 69 0 98 30
104 106 4 54 1 63 -24 93 -27 32 -30 33 -85 28 l-58 -5 -3 55 c-2 30 -6 51
-10 47z m128 -122 c33 -22 44 -98 22 -147 -13 -29 -38 -38 -94 -33 l-39 3 -3
84 c-2 61 1 87 10 92 16 11 89 11 104 1z"/>
<path d="M747 683 c-4 -3 -7 -75 -7 -160 l0 -153 84 0 c69 0 88 4 110 21 35
27 35 73 1 109 l-25 26 22 41 c27 49 18 90 -22 110 -26 13 -152 18 -163 6z
m172 -43 c12 -23 12 -30 -4 -63 l-18 -38 -71 3 -71 3 -3 49 c-5 75 -3 77 80
74 66 -3 74 -5 87 -28z m0 -146 c25 -32 27 -67 5 -89 -13 -12 -33 -15 -93 -13
l-76 3 -3 49 c-5 73 -2 76 77 76 63 0 71 -2 90 -26z"/>
<path d="M1000 485 c0 -70 4 -115 10 -115 6 0 10 45 10 115 0 70 -4 115 -10
115 -6 0 -10 -45 -10 -115z"/>
<path d="M1099 571 c-25 -25 -29 -37 -29 -84 0 -45 5 -61 26 -86 22 -26 33
-31 71 -31 36 0 50 6 74 29 25 26 29 37 29 86 0 49 -4 60 -29 86 -23 23 -38
29 -71 29 -33 0 -48 -6 -71 -29z m111 4 c61 -31 59 -153 -3 -183 -36 -18 -83
-7 -103 23 -18 28 -21 104 -4 135 20 38 65 48 110 25z"/>
<path d="M1333 590 c-22 -9 -23 -15 -23 -115 0 -136 18 -139 22 -3 l3 102 32
7 c18 3 42 1 55 -5 21 -11 23 -19 26 -109 4 -128 22 -127 22 2 0 108 2 111 64
111 49 0 56 -14 56 -117 0 -55 4 -93 10 -93 6 0 10 39 10 98 0 83 -3 102 -18
115 -21 19 -68 22 -108 7 -19 -8 -30 -8 -38 0 -12 12 -82 12 -113 0z"/>
<path d="M1697 589 c-24 -14 -47 -69 -47 -109 0 -38 24 -86 49 -100 25 -13 87
-13 112 0 63 34 63 176 0 210 -25 13 -91 12 -114 -1z m121 -35 c35 -39 31
-107 -8 -146 -26 -25 -36 -29 -63 -24 -53 11 -72 38 -72 102 0 49 3 59 29 81
36 31 80 26 114 -13z"/>
</g>
</svg>
