<?xml version="1.0" standalone="no"?>
<!DOCTYPE svg PUBLIC "-//W3C//DTD SVG 20010904//EN"
 "http://www.w3.org/TR/2001/REC-SVG-20010904/DTD/svg10.dtd">
<svg version="1.0" xmlns="http://www.w3.org/2000/svg"
 width="852.000000pt" height="321.000000pt" viewBox="0 0 852.000000 321.000000"
 preserveAspectRatio="xMidYMid meet">

<g transform="translate(0.000000,321.000000) scale(0.100000,-0.100000)"
fill="#000000" stroke="none">
<path d="M10 2925 l0 -275 35 0 35 0 0 275 0 275 -35 0 -35 0 0 -275z"/>
<path d="M1650 3179 c-27 -49 20 -96 69 -69 24 12 29 58 9 78 -20 20 -66 15
-78 -9z"/>
<path d="M1310 3070 l0 -50 -40 0 c-38 0 -40 -2 -40 -30 0 -28 2 -30 40 -30
l40 0 0 -125 c0 -71 5 -135 11 -149 15 -32 55 -48 110 -44 42 3 44 5 47 36 3
33 3 34 -28 27 -23 -5 -36 -2 -51 11 -17 15 -19 31 -19 131 l0 113 50 0 c49 0
50 1 50 30 0 29 -1 30 -50 30 l-50 0 0 50 0 50 -35 0 -35 0 0 -50z"/>
<path d="M1966 3112 c-3 -5 -4 -27 -2 -50 l3 -42 -43 0 c-41 0 -42 -1 -40 -27
3 -24 8 -29 42 -33 l39 -5 -2 -85 c-4 -182 17 -230 101 -230 63 0 76 7 76 42
0 27 -2 29 -33 23 -62 -12 -80 30 -75 170 l3 80 52 3 c49 3 51 4 49 30 -3 25
-7 27 -55 30 l-51 3 0 50 c0 48 -1 49 -29 49 -17 0 -32 -4 -35 -8z"/>
<path d="M2879 3118 c-1 -2 -2 -23 -3 -48 l-2 -45 -42 -3 c-39 -3 -42 -5 -42
-32 0 -27 3 -29 41 -32 l42 -3 1 -133 c1 -134 1 -134 29 -158 21 -18 40 -24
75 -24 58 0 74 9 69 41 -4 20 -9 24 -35 21 -21 -2 -38 4 -51 17 -19 19 -21 33
-21 131 l0 110 50 0 c49 0 50 1 50 30 0 29 -1 30 -50 30 l-50 0 0 50 c0 49 -1
50 -30 50 -16 0 -31 -1 -31 -2z"/>
<path d="M446 3020 c-16 -5 -39 -19 -52 -31 l-24 -22 0 26 c0 24 -4 27 -35 27
l-35 0 0 -185 0 -185 34 0 34 0 4 131 c3 129 3 131 31 155 39 34 95 33 128 -2
22 -24 24 -34 27 -155 l4 -129 35 0 35 0 -3 143 c-4 152 -12 179 -62 211 -30
20 -86 27 -121 16z"/>
<path d="M918 3020 c-75 -13 -115 -62 -103 -126 8 -43 30 -60 110 -87 74 -24
97 -46 79 -74 -21 -33 -68 -38 -119 -13 l-47 23 -21 -21 c-18 -18 -19 -23 -6
-38 40 -48 163 -60 220 -21 43 29 61 63 55 106 -7 48 -31 69 -106 91 -37 11
-74 28 -83 38 -15 16 -15 20 -1 40 18 26 84 31 104 7 16 -20 27 -19 56 4 l23
18 -24 23 c-28 26 -84 39 -137 30z"/>
<path d="M3325 3014 c-125 -43 -169 -195 -88 -303 81 -107 267 -88 330 33 24
47 20 135 -8 185 -43 77 -148 115 -234 85z m133 -74 c38 -23 52 -54 52 -115 0
-35 -6 -52 -30 -79 -17 -19 -44 -38 -60 -41 -42 -9 -95 11 -125 46 -46 55 -28
160 33 193 38 21 91 19 130 -4z"/>
<path d="M1660 2836 l0 -186 36 0 35 0 -3 183 -3 182 -32 3 -33 3 0 -185z"/>
<path d="M2312 2865 l3 -155 33 -32 c30 -30 37 -33 97 -33 57 0 67 3 94 29
l31 30 0 -27 c0 -24 4 -27 33 -27 l33 0 -1 183 0 182 -32 3 -33 3 0 -111 c0
-127 -13 -171 -59 -194 -36 -19 -52 -20 -84 -5 -39 18 -47 50 -47 184 l0 125
-36 0 -35 0 3 -155z"/>
<path d="M2744 2204 c4 -38 9 -96 12 -130 l5 -61 80 -10 c228 -30 410 -218
441 -455 l12 -88 139 0 140 0 -6 98 c-15 262 -182 510 -421 627 -114 56 -184
75 -309 82 l-99 6 6 -69z"/>
<path d="M6191 2259 c-71 -14 -141 -39 -215 -77 l-68 -36 101 -99 c79 -78 104
-98 118 -92 109 48 228 60 323 35 109 -29 232 -121 294 -219 15 -24 39 -73 54
-110 32 -84 36 -224 8 -315 l-18 -59 105 -105 105 -105 36 74 c52 107 76 212
76 336 0 137 -21 225 -82 352 -44 92 -61 115 -141 195 -125 124 -240 189 -395
221 -73 16 -231 18 -301 4z"/>
<path d="M10 1490 l0 -750 368 0 c202 0 394 5 427 10 228 37 341 156 361 380
9 94 -9 168 -59 242 -51 75 -100 115 -168 138 l-53 18 40 17 c57 23 118 88
150 159 24 52 28 73 28 146 -2 207 -94 336 -265 375 -55 12 -142 15 -448 15
l-381 0 0 -750z m739 471 c94 -67 92 -224 -5 -297 l-37 -29 -209 -3 -208 -3 0
181 0 181 213 -3 c205 -3 213 -4 246 -27z m46 -616 c58 -36 85 -83 85 -148 0
-85 -66 -174 -145 -197 -26 -7 -109 -10 -240 -8 l-200 3 -3 193 -2 193 228 -3
229 -3 48 -30z"/>
<path d="M1456 2231 c-3 -5 -5 -341 -3 -747 l2 -739 143 -3 142 -3 0 751 0
750 -139 0 c-77 0 -142 -4 -145 -9z"/>
<path d="M3810 1490 l0 -751 143 3 142 3 0 373 c0 204 3 371 7 370 4 -2 109
-126 234 -276 187 -226 229 -271 239 -260 8 7 111 130 230 273 118 143 218
258 221 255 3 -3 7 -169 7 -370 l2 -365 143 -3 142 -3 0 751 c0 440 -4 750 -9
750 -5 0 -174 -193 -376 -430 -202 -236 -371 -428 -375 -425 -5 3 -171 196
-370 430 -199 234 -366 425 -371 425 -5 0 -9 -313 -9 -750z"/>
<path d="M7350 1491 l0 -751 373 0 c414 1 483 8 583 58 137 69 214 224 201
405 -9 131 -104 264 -218 304 -27 10 -49 20 -49 23 0 3 15 12 34 18 48 18 110
83 143 150 25 51 28 67 27 157 -2 147 -43 244 -132 312 -85 65 -103 67 -554
71 l-408 3 0 -750z m720 484 c106 -55 119 -221 25 -304 -45 -39 -67 -42 -279
-39 l-179 3 1 173 c0 94 1 174 1 177 1 3 91 5 201 5 159 0 207 -3 230 -15z
m53 -619 c45 -22 87 -74 96 -119 16 -76 -29 -176 -98 -220 -35 -21 -45 -22
-260 -22 l-225 0 1 28 c1 15 1 102 2 193 l1 165 223 -3 c194 -3 227 -5 260
-22z"/>
<path d="M5746 1999 c-60 -67 -119 -172 -153 -274 -25 -73 -27 -93 -27 -235 0
-144 1 -161 27 -235 90 -258 286 -444 543 -516 110 -31 286 -31 397 0 123 34
277 121 346 195 21 23 23 28 10 39 -8 7 -53 50 -101 96 l-87 84 -56 -51 c-236
-216 -597 -136 -748 167 -92 184 -66 383 72 562 l20 25 -98 98 -98 97 -47 -52z"/>
<path d="M2023 1458 c4 -109 10 -147 31 -207 96 -272 315 -469 588 -525 95
-20 237 -22 243 -3 2 6 1 68 -3 137 l-7 125 -55 -3 c-273 -15 -512 222 -514
509 l-1 86 -95 7 c-52 3 -117 6 -144 6 l-49 0 6 -132z"/>
<path d="M420 210 c0 -162 2 -190 15 -190 8 0 15 7 15 15 0 12 6 11 33 -5 82
-51 177 4 177 103 0 101 -94 158 -177 107 l-33 -20 0 90 c0 73 -3 90 -15 90
-13 0 -15 -28 -15 -190z m181 -9 c38 -39 39 -87 3 -130 -68 -81 -189 12 -140
107 31 60 90 70 137 23z"/>
<path d="M3180 311 l0 -91 -32 20 c-42 25 -84 25 -126 0 -37 -23 -52 -54 -52
-108 0 -97 95 -152 177 -103 31 19 31 19 36 -1 15 -55 23 9 22 178 0 141 -3
188 -12 191 -10 4 -13 -18 -13 -86z m-37 -101 c34 -27 44 -78 23 -118 -32 -61
-98 -71 -140 -21 -36 43 -35 91 3 130 35 35 77 38 114 9z"/>
<path d="M5320 310 c0 -53 -4 -90 -10 -90 -5 0 -10 4 -10 8 0 5 -11 14 -25 20
-82 38 -165 -21 -165 -115 0 -98 95 -154 177 -104 31 19 31 19 37 -2 13 -50
21 5 23 161 2 174 -1 212 -17 212 -6 0 -10 -38 -10 -90z m-49 -90 c10 -6 26
-25 35 -42 49 -95 -72 -188 -140 -107 -66 78 16 196 105 149z"/>
<path d="M5860 308 l0 -91 -21 19 c-32 29 -110 26 -143 -5 -35 -33 -51 -92
-36 -136 25 -76 116 -110 174 -64 25 20 26 20 26 1 0 -10 7 -19 15 -19 13 0
15 28 15 194 0 165 -2 193 -15 193 -12 0 -15 -17 -15 -92z m-28 -105 c60 -57
22 -163 -59 -163 -51 0 -83 37 -83 95 0 87 81 126 142 68z"/>
<path d="M7410 207 c0 -166 2 -194 15 -194 13 0 15 28 15 194 0 165 -2 193
-15 193 -13 0 -15 -28 -15 -193z"/>
<path d="M147 380 c-87 -16 -141 -94 -135 -196 7 -116 77 -180 187 -172 102 7
160 75 161 186 0 126 -90 203 -213 182z m135 -69 c91 -102 32 -271 -95 -271
-83 0 -142 65 -141 155 2 81 42 141 106 154 49 11 100 -4 130 -38z"/>
<path d="M2102 344 c-33 -51 -21 -53 30 -5 41 38 42 41 18 41 -18 0 -32 -11
-48 -36z"/>
<path d="M3670 195 l0 -184 78 4 c42 2 91 9 107 15 117 44 144 220 46 303 -40
33 -89 47 -168 47 l-63 0 0 -185z m180 130 c96 -49 100 -199 7 -255 -23 -14
-50 -20 -94 -20 l-63 0 0 144 c0 142 0 145 23 149 32 6 98 -4 127 -18z"/>
<path d="M6780 197 c0 -180 1 -185 20 -180 19 5 20 13 17 182 -2 158 -4 176
-19 179 -17 3 -18 -11 -18 -181z"/>
<path d="M2450 350 c0 -15 5 -20 18 -18 9 2 17 10 17 18 0 8 -8 16 -17 18 -13
2 -18 -3 -18 -18z"/>
<path d="M4025 360 c-4 -6 -1 -17 5 -26 15 -18 42 0 33 22 -6 16 -29 19 -38 4z"/>
<path d="M5017 364 c-14 -15 -6 -34 14 -34 14 0 19 5 17 17 -3 18 -20 27 -31
17z"/>
<path d="M8011 338 c-10 -28 3 -35 25 -14 14 14 18 14 45 1 32 -17 62 -9 73
20 7 18 2 19 -24 3 -16 -10 -24 -10 -40 0 -32 20 -69 15 -79 -10z"/>
<path d="M1858 288 c-2 -26 -8 -34 -26 -36 -27 -4 -24 -27 4 -27 17 0 20 -10
24 -98 5 -105 11 -117 63 -117 17 0 27 5 27 14 0 9 -12 16 -27 18 l-28 3 -3
91 -3 91 27 -1 c15 -1 29 5 31 12 3 8 -6 12 -26 12 -29 0 -31 3 -31 35 0 46
-27 49 -32 3z"/>
<path d="M736 239 c-30 -24 -35 -69 -10 -90 9 -8 37 -21 63 -29 38 -12 46 -19
46 -40 0 -36 -46 -51 -87 -27 -16 9 -34 15 -38 12 -15 -9 -1 -31 26 -44 64
-29 134 4 134 64 0 38 -6 43 -69 66 -53 18 -71 40 -52 63 17 21 50 20 73 -1
15 -13 21 -14 31 -4 9 10 7 16 -12 32 -30 25 -72 24 -105 -2z"/>
<path d="M968 243 c-26 -16 -58 -76 -58 -108 0 -35 34 -97 61 -110 42 -22 93
-19 125 8 36 31 24 56 -13 27 -14 -11 -39 -20 -55 -20 -34 0 -78 39 -78 70 0
19 6 20 90 20 89 0 90 0 90 25 0 83 -90 132 -162 88z m111 -39 c37 -47 29 -54
-54 -54 -84 0 -95 11 -50 55 33 34 77 33 104 -1z"/>
<path d="M1254 245 c-22 -17 -38 -20 -29 -5 3 6 -2 10 -12 10 -16 0 -18 -9
-15 -107 2 -60 5 -114 8 -122 10 -29 19 3 20 75 2 86 20 122 64 131 17 3 30
12 30 19 0 18 -41 18 -66 -1z"/>
<path d="M1618 248 c-35 -12 -39 -44 -5 -33 73 23 117 10 117 -34 0 -15 -10
-19 -56 -23 -66 -6 -95 -29 -96 -78 -2 -59 77 -93 128 -55 21 16 35 19 31 7
-1 -4 3 -8 8 -10 6 -1 11 36 13 93 3 90 1 97 -22 120 -27 27 -69 32 -118 13z
m112 -138 c0 -38 -31 -70 -68 -70 -49 0 -69 41 -34 73 9 8 35 17 57 20 22 2
41 4 43 5 1 1 2 -11 2 -28z"/>
<path d="M2044 242 c-40 -25 -58 -70 -51 -128 6 -61 39 -95 98 -101 90 -8 137
48 130 154 0 13 -14 37 -29 54 -36 40 -102 50 -148 21z m107 -25 c70 -53 40
-177 -43 -177 -80 1 -116 95 -62 159 28 33 75 41 105 18z"/>
<path d="M2340 240 c-18 -18 -24 -18 -21 3 0 4 -6 7 -14 7 -12 0 -15 -20 -15
-118 0 -99 3 -119 15 -119 12 0 15 16 15 84 0 76 2 86 25 108 13 14 33 25 45
25 11 0 20 7 20 15 0 22 -46 19 -70 -5z"/>
<path d="M2609 245 c-77 -42 -76 -180 1 -220 84 -43 180 15 180 110 0 92 -101
153 -181 110z m116 -40 c19 -18 25 -35 25 -70 0 -116 -143 -132 -166 -18 -7
34 15 86 43 102 31 18 73 12 98 -14z"/>
<path d="M3314 250 c-26 -10 -37 -26 -29 -40 4 -7 14 -5 28 5 26 18 78 20 95
3 7 -7 12 -22 12 -34 0 -18 -7 -22 -49 -26 -72 -7 -101 -29 -101 -78 0 -29 6
-43 22 -54 28 -20 77 -20 105 -1 20 14 23 14 32 -2 17 -32 24 -5 22 94 -1 91
-3 100 -27 121 -26 23 -71 28 -110 12z m106 -146 c0 -32 -33 -64 -68 -64 -80
0 -63 84 18 92 45 4 50 2 50 -28z"/>
<path d="M4418 244 c-79 -42 -76 -179 4 -220 40 -21 103 -13 132 16 17 17 18
22 7 29 -9 6 -21 3 -34 -10 -32 -30 -80 -25 -111 12 -45 53 -38 59 70 59 l97
0 -6 38 c-12 75 -92 113 -159 76z m105 -31 c8 -10 17 -27 19 -38 3 -18 -3 -20
-66 -23 -86 -4 -99 7 -58 47 35 35 80 41 105 14z"/>
<path d="M4696 239 c-21 -17 -26 -18 -26 -5 0 9 -7 16 -15 16 -12 0 -15 -20
-15 -118 0 -99 3 -119 15 -119 12 0 15 16 15 78 0 69 3 81 26 108 14 17 34 31
44 31 10 0 20 7 24 15 8 23 -36 19 -68 -6z"/>
<path d="M4816 239 c-30 -24 -35 -69 -10 -90 9 -8 37 -21 63 -29 48 -16 63
-39 41 -65 -16 -19 -60 -19 -86 -1 -11 8 -26 11 -33 7 -21 -14 36 -51 78 -51
54 0 81 23 81 69 0 45 -12 57 -70 74 -51 15 -70 38 -51 61 17 20 55 21 75 0
17 -17 36 -11 36 12 0 16 -39 34 -74 34 -13 0 -35 -9 -50 -21z"/>
<path d="M5448 248 c-27 -9 -36 -27 -22 -41 4 -3 16 0 28 8 41 30 106 12 106
-29 0 -21 -6 -24 -49 -28 -72 -7 -101 -29 -101 -78 0 -29 6 -43 22 -54 28 -20
78 -21 104 -2 17 13 21 12 37 -1 20 -19 19 -24 17 97 -1 88 -3 97 -26 118 -27
24 -69 28 -116 10z m112 -144 c0 -32 -34 -64 -68 -64 -76 0 -64 83 13 92 43 5
55 -1 55 -28z"/>
<path d="M6012 247 c-54 -30 -75 -105 -46 -168 31 -69 116 -92 170 -46 36 31
24 56 -13 27 -14 -11 -39 -20 -55 -20 -34 0 -78 39 -78 70 0 19 6 20 90 20 89
0 90 0 90 25 0 80 -87 131 -158 92z m107 -43 c37 -47 29 -54 -54 -54 -67 0
-75 2 -75 19 0 26 46 61 81 61 18 0 35 -9 48 -26z"/>
<path d="M6424 250 c-41 -16 -64 -59 -64 -117 0 -49 4 -59 34 -89 41 -41 92
-46 144 -14 28 17 32 23 22 35 -11 13 -16 12 -37 -5 -14 -11 -38 -20 -53 -20
-32 0 -80 43 -80 71 0 17 9 19 95 19 l95 0 -6 33 c-15 79 -78 116 -150 87z
m96 -40 c11 -11 20 -29 20 -40 0 -18 -7 -20 -75 -20 -85 0 -95 12 -49 55 33
30 77 32 104 5z"/>
<path d="M6956 239 c-21 -17 -26 -18 -26 -5 0 9 -7 16 -15 16 -12 0 -15 -19
-15 -114 0 -92 3 -115 15 -120 13 -4 15 8 15 80 0 77 2 87 25 109 13 14 35 25
49 25 42 0 56 -34 56 -131 0 -69 3 -86 15 -86 12 0 15 18 15 99 0 92 -2 101
-25 123 -30 31 -73 32 -109 4z"/>
<path d="M7225 251 c-77 -32 -91 -154 -25 -213 37 -34 96 -38 130 -10 30 25
18 49 -13 27 -78 -55 -160 43 -112 134 22 44 73 55 107 24 15 -13 21 -14 31
-4 9 10 7 16 -12 32 -24 20 -71 24 -106 10z"/>
<path d="M7802 244 c-16 -11 -22 -25 -22 -55 0 -37 3 -41 38 -55 89 -34 104
-50 77 -78 -21 -21 -63 -21 -87 1 -14 13 -21 14 -30 5 -19 -19 13 -43 65 -49
39 -5 49 -2 71 20 49 49 27 96 -55 120 -46 14 -60 36 -39 62 16 19 49 19 69 1
12 -11 21 -12 31 -5 13 8 11 13 -9 29 -28 24 -78 26 -109 4z"/>
<path d="M8021 247 c-25 -13 -26 -34 -1 -29 81 19 100 13 114 -35 7 -21 4 -23
-32 -23 -51 0 -100 -18 -112 -40 -41 -78 53 -145 124 -89 l26 20 0 -20 c0 -12
6 -21 14 -21 11 0 13 19 11 92 -2 51 -3 99 -4 106 -4 44 -86 67 -140 39z m113
-144 c-10 -40 -33 -63 -65 -63 -29 0 -59 23 -59 45 0 23 42 45 87 45 42 0 43
-1 37 -27z"/>
<path d="M8289 245 c-30 -16 -59 -70 -59 -109 0 -44 27 -94 59 -110 112 -58
220 53 165 169 -27 57 -108 81 -165 50z m110 -32 c32 -26 43 -85 22 -125 -43
-87 -156 -48 -156 55 0 70 81 112 134 70z"/>
<path d="M1334 233 c3 -10 23 -63 45 -118 52 -134 60 -133 117 14 24 63 42
117 39 119 -14 15 -36 -17 -59 -85 -15 -43 -30 -84 -35 -91 -6 -9 -19 16 -42
80 -24 65 -40 94 -53 96 -14 3 -16 -1 -12 -15z"/>
<path d="M2450 129 c0 -92 3 -120 13 -117 8 3 13 39 15 121 2 100 0 117 -13
117 -13 0 -15 -19 -15 -121z"/>
<path d="M4030 132 c0 -99 3 -119 15 -119 12 0 15 20 15 119 0 98 -3 118 -15
118 -12 0 -15 -20 -15 -118z"/>
<path d="M4131 198 c12 -29 30 -78 41 -108 23 -63 43 -89 57 -75 10 10 91 213
91 227 0 4 -6 8 -14 8 -12 0 -76 -151 -76 -181 0 -31 -19 3 -49 86 -26 75 -37
95 -52 95 -18 0 -18 -2 2 -52z"/>
<path d="M5010 148 c2 -113 7 -141 21 -133 5 4 9 58 9 121 0 97 -2 114 -16
114 -13 0 -15 -15 -14 -102z"/>
<path d="M7520 150 c0 -87 3 -103 20 -120 26 -26 80 -26 114 1 25 20 26 20 26
1 0 -10 7 -19 15 -19 12 0 15 20 15 119 0 98 -3 118 -15 118 -12 0 -15 -14
-15 -70 0 -43 -6 -82 -15 -99 -23 -46 -69 -55 -100 -21 -15 17 -18 36 -17 105
1 69 -2 85 -13 85 -12 0 -15 -19 -15 -100z"/>
</g>
</svg>
